<?xml version="1.0" encoding="utf-8"?>
<!-- Svg Vector Icons : http://www.onlinewebfonts.com/icon -->
<!DOCTYPE svg PUBLIC "-//W3C//DTD SVG 1.1//EN" "http://www.w3.org/Graphics/SVG/1.1/DTD/svg11.dtd">
<svg version="1.1" xmlns="http://www.w3.org/2000/svg" xmlns:xlink="http://www.w3.org/1999/xlink" x="0px" y="0px" viewBox="0 0 256 256" enable-background="new 0 0 256 256" xml:space="preserve">
<metadata> Svg Vector Icons : http://www.onlinewebfonts.com/icon </metadata>
<g><g><g><path fill="#000000" d="M243.9,67.2L130.1,181c-2.9,2.8-7.5,2.8-10.4,0l-2.3-2.3l0,0l-2.5-2.5l-10.7-10.7l-0.1-0.2l-49.2-49.6c-2.8-2.8-2.8-7.5,0-10.4l15.5-15.5c2.9-2.9,7.5-2.9,10.4,0l44.3,44.6l93-93.1c2.9-2.9,7.5-2.9,10.4,0l15.5,15.5C246.7,59.7,246.7,64.3,243.9,67.2z"/><path fill="#000000" d="M194.7,201.6c0,8.2-6.7,15-15,15H40c-8.3,0-15-6.7-15-15V54.4c0-8.2,6.7-15,15-15h139.7c8.3,0,15,6.7,15,15l0,0l10.6-9.8c1.7-12.1-10.5-20.1-25.6-20.1H40c-16.5,0-30,13.4-30,29.9v147.2c0,16.5,13.4,29.9,30,29.9h139.7c16.5,0,30-13.4,30-29.9v-87.8l-15,16.3V201.6L194.7,201.6z"/><g></g><g></g><g></g><g></g><g></g><g></g><g></g><g></g><g></g><g></g><g></g><g></g><g></g><g></g><g></g></g><g></g><g></g><g></g><g></g><g></g><g></g><g></g><g></g><g></g><g></g><g></g><g></g><g></g><g></g><g></g></g></g>
</svg>