<svg class="svg-icon" style="width: 1em; height: 1em;vertical-align: middle;fill: currentColor;overflow: hidden;" viewBox="0 0 1024 1024" version="1.1" xmlns="http://www.w3.org/2000/svg"><path d="M578.56 392.192c0-10.24-9.216-19.456-19.456-19.456H444.416c-10.24 0-19.456 9.216-19.456 19.456V737.28c0 10.24 9.216 19.456 19.456 19.456h114.688c10.24 0 19.456-9.216 19.456-19.456V392.192z m-230.4 0c0-10.24-9.216-19.456-19.456-19.456H214.016c-10.24 0-19.456 9.216-19.456 19.456V788.48c0 10.24 9.216 19.456 19.456 19.456h114.688c10.24 0 19.456-9.216 19.456-19.456V392.192z m460.8 0c0-10.24-9.216-19.456-19.456-19.456H674.816c-10.24 0-19.456 9.216-19.456 19.456V686.08c0 10.24 9.216 19.456 19.456 19.456h114.688c10.24 0 19.456-9.216 19.456-19.456V392.192z m0-179.2c0-10.24-9.216-19.456-19.456-19.456H214.016c-10.24 0-19.456 9.216-19.456 19.456V276.48c0 10.24 9.216 19.456 19.456 19.456h575.488c10.24 0 19.456-9.216 19.456-19.456v-63.488z"  /></svg>